#N canvas 552 4 628 613 10;
#X obj 190 440 mrpeach/packOSC;
#X msg 190 396 send /blibli \$1;
#X msg 298 439 disconnect;
#X floatatom 190 367 5 0 0 0 - - -, f 5;
#X obj 190 578 tgl 15 0 empty empty empty 17 7 0 10 -262144 -1 -1 1
1;
#X msg 298 479 connect 192.168.7.2 7562;
#X obj 190 546 mrpeach/udpsend;
#X floatatom 298 356 5 0 0 0 - - -, f 5;
#X obj 318 323 hsl 128 15 0.5 50.5 0 0 empty empty empty -2 -8 0 10
-262144 -1 -1 7600 1;
#X msg 298 507 connect 129.161.54.38 9997;
#X obj 72 117 mrpeach/unpackOSC;
#X obj 77 258 spigot;
#X obj 80 72 spigot;
#X obj 85 165 spigot;
#X obj 113 43 tgl 19 0 empty empty empty 17 7 0 10 -262144 -1 -1 1
1;
#X obj 118 138 tgl 15 0 empty empty empty 17 7 0 10 -262144 -1 -1 1
1;
#X obj 110 236 tgl 15 0 empty empty empty 17 7 0 10 -262144 -1 -1 1
1;
#X obj 53 22 mrpeach/udpreceive 9997;
#X floatatom 449 195 3 0 0 0 - - -, f 3;
#X floatatom 476 195 3 0 0 0 - - -, f 3;
#X floatatom 503 195 3 0 0 0 - - -, f 3;
#X floatatom 530 195 3 0 0 0 - - -, f 3;
#X floatatom 557 196 5 0 0 0 - - -, f 5;
#X obj 449 169 unpack 0 0 0 0 0;
#X floatatom 328 116 9 0 0 0 - - -, f 9;
#X obj 509 142 tgl 15 0 empty empty empty 17 7 0 10 -4034 -1 -1 0 1
;
#X floatatom 388 142 9 0 0 0 - - -, f 9;
#X text 221 116 bytes received:;
#X text 236 140 total bytes received:;
#X text 406 194 from:;
#X obj 328 83 route received total from multicast;
#X msg 298 540 connect 127.0.0.1 9997;
#X obj 77 280 print;
#X obj 85 187 print;
#X obj 80 94 print;
#X obj 53 320 spigot;
#X obj 105 316 tgl 24 0 empty empty empty 17 7 0 10 -262144 -1 -1 1
1;
#X obj 228 340 delay 50;
#X obj 77 211 mrpeach/routeOSC /freq1;
#X text 105 345 comment;
#X text 59 298 toggle to send data from network to bela;
#X msg 306 401 send /freq \$1;
#X connect 0 0 6 0;
#X connect 1 0 0 0;
#X connect 2 0 6 0;
#X connect 3 0 1 0;
#X connect 5 0 6 0;
#X connect 6 0 4 0;
#X connect 7 0 41 0;
#X connect 8 0 7 0;
#X connect 9 0 6 0;
#X connect 10 0 13 0;
#X connect 10 0 38 0;
#X connect 11 0 32 0;
#X connect 12 0 34 0;
#X connect 13 0 33 0;
#X connect 14 0 12 1;
#X connect 15 0 13 1;
#X connect 16 0 11 1;
#X connect 17 0 10 0;
#X connect 17 0 12 0;
#X connect 17 0 35 0;
#X connect 17 1 30 0;
#X connect 23 0 18 0;
#X connect 23 1 19 0;
#X connect 23 2 20 0;
#X connect 23 3 21 0;
#X connect 23 4 22 0;
#X connect 30 0 24 0;
#X connect 30 1 26 0;
#X connect 30 2 23 0;
#X connect 30 3 25 0;
#X connect 31 0 6 0;
#X connect 35 0 6 0;
#X connect 36 0 35 1;
#X connect 36 0 2 0;
#X connect 36 0 37 0;
#X connect 37 0 5 0;
#X connect 38 0 11 0;
#X connect 41 0 0 0;
